<!-- Generator: Adobe Illustrator 22.1.0, SVG Export Plug-In  -->
<svg version="1.1"
	 xmlns="http://www.w3.org/2000/svg" xmlns:xlink="http://www.w3.org/1999/xlink" xmlns:a="http://ns.adobe.com/AdobeSVGViewerExtensions/3.0/"
	 x="0px" y="0px" width="91.9px" height="100px" viewBox="0 0 91.9 100" style="enable-background:new 0 0 91.9 100;"
	 xml:space="preserve">
<style type="text/css">
	.st0{fill:none;stroke:#000000;stroke-width:4;stroke-linecap:round;stroke-miterlimit:10;}
</style>
<defs>
</defs>
<g>
	<path class="st0" d="M2,2l10.7,6.1c0.5,0.7,0.8,1.5,0.8,2.3v63.4c0,5.9,4.8,10.8,10.7,10.8h65.7"/>
	<ellipse cx="27.2" cy="94.4" rx="5.6" ry="5.6"/>
	<ellipse cx="76.9" cy="94.4" rx="5.6" ry="5.6"/>
	<path class="st0" d="M50.4,33.5l38,5.7c0.1,0,0.1,0,0.2,0h0.9"/>
	<path class="st0" d="M69.5,78.4H23.4c-5.5,0-10-4.5-10-10.1V30c0-0.7,0.6-1.3,1.3-1.3h0c0.1,0,0.1,0,0.2,0l22.9,3"/>
	<path class="st0" d="M89.8,39.6v33.7c0,2.9-2.3,5.2-5.1,5.2h-3.8"/>
	<g>
		<g>
			<path d="M44,35.4c3.9,0,3.9-6,0-6C40.2,29.4,40.2,35.4,44,35.4L44,35.4z"/>
		</g>
	</g>
	<g>
		<g>
			<path d="M75.3,81.5c3.9,0,3.9-6,0-6C71.4,75.5,71.4,81.5,75.3,81.5L75.3,81.5z"/>
		</g>
	</g>
</g>
</svg>