<!-- Generator: Adobe Illustrator 22.0.0, SVG Export Plug-In  -->
<svg version="1.1"
	 xmlns="http://www.w3.org/2000/svg" xmlns:xlink="http://www.w3.org/1999/xlink" xmlns:a="http://ns.adobe.com/AdobeSVGViewerExtensions/3.0/"
	 x="0px" y="0px" width="1366px" height="581.8px" viewBox="0 0 1366 581.8" style="enable-background:new 0 0 1366 581.8;"
	 xml:space="preserve">
<style type="text/css">
	.st0{fill:url(#SVGID_1_);}
	.st1{fill:#FFFFFF;}
	.st2{fill:url(#SVGID_2_);}
</style>
<defs>
</defs>
<linearGradient id="SVGID_1_" gradientUnits="userSpaceOnUse" x1="682.9922" y1="581.8384" x2="682.9922" y2="0">
	<stop  offset="0" style="stop-color:#93278F"/>
	<stop  offset="0.2216" style="stop-color:#AC1D93"/>
	<stop  offset="0.7454" style="stop-color:#E2089C"/>
	<stop  offset="1" style="stop-color:#F7009F"/>
</linearGradient>
<path class="st0" d="M0,158.8L0,158.8c429.5-211,930.9-211.8,1361.2-2.3l4.8,2.3v423H0V158.8z"/>
<path class="st1" d="M1336.9,50L1336.9,50c-5.5-2.9-12.5-0.8-15.4,4.8l-70.8,136.4c-2.9,5.6-0.8,12.6,4.8,15.5v0
	c5.5,2.9,12.5,0.8,15.4-4.8l70.8-136.4C1344.6,59.9,1342.5,52.9,1336.9,50z"/>
<path class="st1" d="M34.1,49L34.1,49c5.5-2.9,12.5-0.8,15.4,4.8l70.8,136.4c2.9,5.6,0.8,12.6-4.8,15.5l0,0
	c-5.5,2.9-12.5,0.8-15.4-4.8L29.3,64.5C26.4,58.9,28.5,51.9,34.1,49z"/>
<path class="st1" d="M0,111.6l41.7,80.2c2.9,5.6,9.8,7.8,15.4,4.8s7.7-9.9,4.8-15.5L0,62.1V111.6z"/>
<path class="st1" d="M1366,82.1l-50.9,98.1c-2.9,5.6-0.8,12.6,4.8,15.5s12.5,0.8,15.4-4.8l30.8-59.3V82.1z"/>
</svg>
