<!-- Generator: Adobe Illustrator 22.1.0, SVG Export Plug-In  -->
<svg version="1.1"
	 xmlns="http://www.w3.org/2000/svg" xmlns:xlink="http://www.w3.org/1999/xlink" xmlns:a="http://ns.adobe.com/AdobeSVGViewerExtensions/3.0/"
	 x="0px" y="0px" width="115.9px" height="76.7px" viewBox="0 0 115.9 76.7" style="enable-background:new 0 0 115.9 76.7;"
	 xml:space="preserve">
<style type="text/css">
	.st0{fill:none;stroke:#000000;stroke-width:3;stroke-linecap:round;stroke-linejoin:round;stroke-miterlimit:10;}
	.st1{stroke:#000000;stroke-width:3;stroke-linecap:round;stroke-linejoin:round;stroke-miterlimit:10;}
	.st2{stroke:#000000;stroke-linecap:round;stroke-linejoin:round;stroke-miterlimit:10;}
</style>
<defs>
</defs>
<g>
	<path class="st0" d="M103,65.1C96.5,71.3,87.7,75.2,78,75.2c-20.1,0-36.5-16.5-36.5-36.8S57.8,1.5,78,1.5s36.5,16.5,36.5,36.8
		c0,6.2-1.5,12.1-4.3,17.3"/>
	<path class="st0" d="M108.8,38.3c0,1-0.1,2.1-0.1,3.1c-0.2,2-0.6,4-1.2,5.9C103.6,60.1,91.9,69.4,78,69.4
		c-17,0-30.8-13.9-30.8-31.1S61,7.2,78,7.2c15.2,0,27.8,11.1,30.3,25.7C108.6,34.7,108.8,36.5,108.8,38.3z"/>
	<ellipse class="st1" cx="78" cy="38.3" rx="4.8" ry="4.8"/>
	<path class="st2" d="M77.8,17.7L77.8,17.7c-0.6,0-1.1-0.5-1.1-1.1V11c0-0.6,0.5-1.1,1.1-1.1h0c0.6,0,1.1,0.5,1.1,1.1v5.5
		C78.9,17.2,78.4,17.7,77.8,17.7z"/>
	<path class="st2" d="M77.8,66.2L77.8,66.2c-0.6,0-1.1-0.5-1.1-1.1v-5.5c0-0.6,0.5-1.1,1.1-1.1h0c0.6,0,1.1,0.5,1.1,1.1V65
		C78.9,65.7,78.4,66.2,77.8,66.2z"/>
	<path class="st2" d="M98,38.5L98,38.5c0-0.6,0.5-1.1,1.1-1.1h5.4c0.6,0,1.1,0.5,1.1,1.1v0c0,0.6-0.5,1.1-1.1,1.1h-5.4
		C98.5,39.6,98,39.1,98,38.5z"/>
	<path class="st2" d="M50.4,38.5L50.4,38.5c0-0.6,0.5-1.1,1.1-1.1H57c0.6,0,1.1,0.5,1.1,1.1v0c0,0.6-0.5,1.1-1.1,1.1h-5.4
		C50.9,39.6,50.4,39.1,50.4,38.5z"/>
	<line class="st1" x1="46.4" y1="19.9" x2="17.4" y2="20"/>
	<line class="st1" x1="4.8" y1="38.7" x2="1.5" y2="38.7"/>
	<line class="st1" x1="41.4" y1="38.7" x2="14.3" y2="38.7"/>
	<line class="st1" x1="20.2" y1="57.9" x2="6.9" y2="57.9"/>
	<line class="st1" x1="46.8" y1="57.9" x2="29.7" y2="57.9"/>
	<polyline class="st1" points="74.2,38 64.7,22.9 76.5,35.3 	"/>
	<polyline class="st1" points="81.4,36.2 91.9,38 81,39.9 	"/>
	<g>
		<g>
			<path d="M107.2,61.7c1.9,0,1.9-3,0-3C105.2,58.7,105.2,61.7,107.2,61.7L107.2,61.7z"/>
		</g>
	</g>
</g>
</svg>
