<!-- Generator: Adobe Illustrator 22.1.0, SVG Export Plug-In  -->
<svg version="1.1"
	 xmlns="http://www.w3.org/2000/svg" xmlns:xlink="http://www.w3.org/1999/xlink" xmlns:a="http://ns.adobe.com/AdobeSVGViewerExtensions/3.0/"
	 x="0px" y="0px" width="85.1px" height="124px" viewBox="0 0 85.1 124" style="enable-background:new 0 0 85.1 124;"
	 xml:space="preserve">
<style type="text/css">
	.st0{stroke:#000000;stroke-width:2;stroke-miterlimit:10;}
	.st1{font-family:'MyriadPro-Regular';}
	.st2{font-size:37.7808px;}
	.st3{fill:none;stroke:#000000;stroke-width:5;stroke-linecap:round;stroke-miterlimit:10;}
	.st4{clip-path:url(#SVGID_2_);fill:none;stroke:#000000;stroke-width:5;stroke-linecap:round;stroke-miterlimit:10;}
	.st5{clip-path:url(#SVGID_4_);fill:none;stroke:#000000;stroke-width:5;stroke-linecap:round;stroke-miterlimit:10;}
</style>
<defs>
</defs>
<g>
	<text transform="matrix(0.9898 0 0 1 32.9579 97.8789)" class="st0 st1 st2">$</text>
	<path class="st3" d="M82.6,89v22.5c0,5.5-4.4,10-9.9,10H12.4c-5.4,0-9.9-4.5-9.9-10V64.5c0-5.5,4.4-10,9.9-10h60.4
		c5.4,0,9.9,4.5,9.9,10V74"/>
	<g>
		<defs>
			<rect id="SVGID_1_" x="9.3" width="66.6" height="54.7"/>
		</defs>
		<clipPath id="SVGID_2_">
			<use xlink:href="#SVGID_1_"  style="overflow:visible;"/>
		</clipPath>
		<path class="st4" d="M47,92.3h-6.4c-13.6,0-24.7-11.1-24.7-24.7V35.9c0-13.6,11.1-24.7,24.7-24.7H47c13.6,0,24.7,11.1,24.7,24.7
			v31.7C71.7,81.2,60.6,92.3,47,92.3z"/>
	</g>
	<g>
		<g>
			<path d="M82.1,84.7c3.9,0,3.9-6,0-6C78.3,78.7,78.3,84.7,82.1,84.7L82.1,84.7z"/>
		</g>
	</g>
</g>
</svg>
