<!-- Generator: Adobe Illustrator 22.1.0, SVG Export Plug-In  -->
<svg version="1.1"
	 xmlns="http://www.w3.org/2000/svg" xmlns:xlink="http://www.w3.org/1999/xlink" xmlns:a="http://ns.adobe.com/AdobeSVGViewerExtensions/3.0/"
	 x="0px" y="0px" width="90.6px" height="91.5px" viewBox="0 0 90.6 91.5" style="enable-background:new 0 0 90.6 91.5;"
	 xml:space="preserve">
<style type="text/css">
	.st0{fill:none;stroke:#000000;stroke-width:5;stroke-linecap:round;stroke-miterlimit:10;}
</style>
<defs>
</defs>
<g>
	<path class="st0" d="M65.4,83.9c-6,3.2-12.9,5.1-20.2,5.1C21.7,89,2.5,69.6,2.5,45.7S21.7,2.5,45.3,2.5s42.8,19.4,42.8,43.2
		c0,11.6-4.5,22-11.8,29.8"/>
	<line class="st0" x1="64.3" y1="32.6" x2="65.4" y2="31.4"/>
	<path class="st0" d="M25.1,49l11,10.3c1.1,1,2.7,0.9,3.7-0.1L60,37.4"/>
	<g>
		<g>
			<path d="M71.1,82.7c3.9,0,3.9-6,0-6C67.3,76.7,67.3,82.7,71.1,82.7L71.1,82.7z"/>
		</g>
	</g>
</g>
</svg>
